<?xml version="1.0" encoding="UTF-8"?>
<svg id="_レイヤー_2" data-name="レイヤー 2" xmlns="http://www.w3.org/2000/svg" viewBox="0 0 58.51 44.82">
  <defs>
    <style>
      .cls-1 {
        fill: #72756e;
        stroke-width: 0px;
      }
    </style>
  </defs>
  <g id="_文字" data-name="文字">
    <g>
      <path class="cls-1" d="m13.42,0c4.43,0,7.85,2.28,10.25,6.83,2.05,3.93,3.08,9.09,3.08,15.5,0,7.42-1.34,13.14-4.01,17.17-2.34,3.56-5.45,5.33-9.32,5.33-4.57,0-8.03-2.22-10.37-6.65-2.03-3.83-3.05-8.99-3.05-15.5C0,15.14,1.33,9.35,3.98,5.3,6.33,1.77,9.47,0,13.42,0Zm0,1.85c-2.56,0-4.33,2.12-5.3,6.36-.72,3.16-1.08,7.93-1.08,14.3,0,7.27.49,12.47,1.46,15.62,1.02,3.24,2.66,4.86,4.92,4.86,2.5,0,4.24-2.1,5.21-6.3.72-3.16,1.08-7.89,1.08-14.18,0-7.32-.48-12.57-1.44-15.73-1-3.28-2.62-4.92-4.86-4.92Z"/>
      <path class="cls-1" d="m55.25,43.74c-2.71-.08-6.57-.12-11.57-.12-5.27,0-9.23.04-11.87.12-.35,0-.57-.06-.64-.18-.1-.14-.15-.42-.15-.85,0-.64.12-1.2.35-1.67,2.38-4.32,5.89-9.44,10.52-15.38,3.38-4.34,5.43-7.16,6.15-8.47,1.21-2.19,1.82-4.46,1.82-6.83,0-2.77-.49-4.92-1.46-6.45-.92-1.43-2.15-2.14-3.69-2.14-2.42,0-4.08,1.16-4.98,3.49-.35.9-.53,2.36-.53,4.39,0,.86-.54,1.57-1.61,2.14-.86.45-1.83.67-2.9.67-1.91,0-2.87-.76-2.87-2.29,0-1.35.52-2.79,1.55-4.34,1.13-1.68,2.61-3.04,4.42-4.07,2.11-1.19,4.41-1.79,6.91-1.79,4.16,0,7.38,1.17,9.67,3.52,1.84,1.91,2.75,4.28,2.75,7.09,0,3.46-1.32,6.57-3.96,9.35-.82.86-2.19,2.11-4.1,3.75-1.56,1.35-2.73,2.38-3.52,3.11-3.38,3.07-5.74,5.38-7.09,6.94-1.04,1.17-1.99,2.52-2.87,4.04h10.61c2.58,0,4.37-.12,5.36-.35.8-.19,1.49-.56,2.08-1.08,1.15-1.07,2.25-2.62,3.28-4.63.16-.27.33-.41.53-.41.1,0,.24.03.44.09.41.14.62.34.62.62v.18c-.92,3.85-2,7.7-3.25,11.54Z"/>
    </g>
  </g>
</svg>