<?xml version="1.0" encoding="UTF-8"?>
<svg id="_レイヤー_2" data-name="レイヤー 2" xmlns="http://www.w3.org/2000/svg" viewBox="0 0 57.66 44.82">
  <defs>
    <style>
      .cls-1 {
        fill: #72756e;
        stroke-width: 0px;
      }
    </style>
  </defs>
  <g id="_文字" data-name="文字">
    <g>
      <path class="cls-1" d="m13.42,0c4.43,0,7.85,2.28,10.25,6.83,2.05,3.93,3.08,9.09,3.08,15.5,0,7.42-1.34,13.14-4.01,17.17-2.34,3.56-5.45,5.33-9.32,5.33-4.57,0-8.03-2.22-10.37-6.65-2.03-3.83-3.05-8.99-3.05-15.5C0,15.14,1.33,9.35,3.98,5.3,6.33,1.77,9.47,0,13.42,0Zm0,1.85c-2.56,0-4.33,2.12-5.3,6.36-.72,3.16-1.08,7.93-1.08,14.3,0,7.27.49,12.47,1.46,15.62,1.01,3.24,2.66,4.86,4.92,4.86,2.5,0,4.24-2.1,5.21-6.3.72-3.16,1.08-7.89,1.08-14.18,0-7.32-.48-12.57-1.44-15.73-1-3.28-2.62-4.92-4.86-4.92Z"/>
      <path class="cls-1" d="m46.61,20.62c7.36,1.5,11.04,5.23,11.04,11.19,0,4.26-1.41,7.57-4.22,9.93-2.44,2.05-5.62,3.08-9.52,3.08-3.15,0-6.08-.78-8.82-2.34-2.6-1.62-3.9-3.3-3.9-5.04,0-.8.43-1.45,1.29-1.93.76-.43,1.77-.64,3.02-.64,1.05,0,1.93.62,2.64,1.85.1.14.5,1.04,1.2,2.72.9,2.36,2.42,3.54,4.57,3.54s3.89-1.15,5.04-3.46c1-1.97,1.49-4.6,1.49-7.88,0-2.73-.6-5.01-1.79-6.83-1.29-1.97-3.11-2.96-5.45-2.96-.18,0-.38.01-.62.03-1.54.1-2.44.15-2.7.15-.45,0-.67-.19-.67-.59,0-.16.03-.36.09-.62.14-.92.52-1.38,1.14-1.38l2.29.18c1.97,0,3.57-.82,4.8-2.46,1.23-1.68,1.85-3.98,1.85-6.91,0-2.58-.49-4.65-1.46-6.21-.9-1.46-2.09-2.2-3.57-2.2-2.11,0-3.61.9-4.51,2.7-.31.78-.47,1.79-.47,3.02,0,1.04-.49,1.85-1.46,2.43-.8.47-1.82.7-3.05.7-1.84,0-2.75-.64-2.75-1.93,0-2.11,1.24-4.11,3.72-6.01,2.42-1.84,5.26-2.75,8.53-2.75,3.75,0,6.72,1.03,8.91,3.08,1.97,1.84,2.96,4.25,2.96,7.24,0,5.18-3.2,8.52-9.61,10.02v.29Z"/>
    </g>
  </g>
</svg>