<?xml version="1.0" encoding="UTF-8"?>
<svg id="_レイヤー_2" data-name="レイヤー 2" xmlns="http://www.w3.org/2000/svg" viewBox="0 0 55.2 45.12">
  <defs>
    <style>
      .cls-1 {
        fill: #72756e;
        stroke-width: 0px;
      }
    </style>
  </defs>
  <g id="_文字" data-name="文字">
    <g>
      <path class="cls-1" d="m13.42.29c4.43,0,7.85,2.28,10.25,6.83,2.05,3.93,3.08,9.09,3.08,15.5,0,7.42-1.34,13.14-4.01,17.17-2.34,3.56-5.45,5.33-9.32,5.33-4.57,0-8.03-2.22-10.37-6.65-2.03-3.83-3.05-8.99-3.05-15.5C0,15.43,1.33,9.64,3.98,5.6,6.33,2.06,9.47.29,13.42.29Zm0,1.85c-2.56,0-4.33,2.12-5.3,6.36-.72,3.16-1.08,7.93-1.08,14.3,0,7.27.49,12.47,1.46,15.62,1.02,3.24,2.66,4.86,4.92,4.86,2.5,0,4.24-2.1,5.21-6.3.72-3.16,1.08-7.89,1.08-14.18,0-7.32-.48-12.57-1.44-15.73-1-3.28-2.62-4.92-4.86-4.92Z"/>
      <path class="cls-1" d="m48.16,0c.64,0,.97.23.97.7-.02,1.07-.07,3.42-.15,7.03-.06,2.4-.09,4.48-.09,6.24v18.78c0,3.12.04,5.11.12,5.95.08.76.26,1.44.56,2.02.27.59.94.99,1.99,1.2.39.08,1.43.21,3.11.38.35.04.53.33.53.88s-.18.85-.53.85c-2.79-.12-5.75-.18-8.88-.18s-6.28.06-9.11.18c-.41,0-.62-.28-.62-.85s.21-.84.62-.88c1.76-.14,2.9-.27,3.43-.41.86-.21,1.41-.6,1.64-1.17.41-.84.62-3.5.62-7.97V11.28c0-2.52-.21-4.05-.62-4.6-.22-.37-.68-.56-1.41-.56-.59,0-1.29.12-2.11.35l-2.34.64c-.22.06-.36.09-.44.09-.29,0-.5-.24-.62-.73-.06-.25-.09-.43-.09-.53,0-.23.21-.42.64-.56,4.02-1.46,8.28-3.26,12.77-5.39Z"/>
    </g>
  </g>
</svg>